<svg id="Layer_1" data-name="Layer 1" xmlns="http://www.w3.org/2000/svg" viewBox="0 0 708.66 708.66"><defs><style>.cls-1{fill:#333;}.cls-2{fill:#fff;}</style></defs><path class="cls-1" d="M482.36,308.46h-256v-79a128,128,0,1,1,255.94,0Zm68.27.72V229.45c0-108.21-88-196.27-196.28-196.27S158.07,121.24,158.07,229.45v79.73a34.18,34.18,0,0,0-27.13,33.4V641.37a34.15,34.15,0,0,0,34.15,34.11H543.57a34.18,34.18,0,0,0,34.15-34.11V342.58a34.18,34.18,0,0,0-27.13-33.4"/><g id="g3015"><path id="path3017" class="cls-2" d="M422.78,434.42a5.88,5.88,0,0,1,1.1,6.89l-84.6,181.26a6.87,6.87,0,0,1-6.57,3.91,13.07,13.07,0,0,1-2.2-.31,6.63,6.63,0,0,1-4-3,5.93,5.93,0,0,1-.71-4.7l30.86-126.58-63.6,15.83a8.7,8.7,0,0,1-1.88.15,7.28,7.28,0,0,1-4.86-1.72,5.85,5.85,0,0,1-2-6.11l31.49-129.24a6.66,6.66,0,0,1,2.5-3.61,7.13,7.13,0,0,1,4.39-1.41h51.38a7,7,0,0,1,5,2,6.24,6.24,0,0,1,2,4.62,6.41,6.41,0,0,1-.78,2.82l-26.79,72.54,62-15.36a8.38,8.38,0,0,1,1.88-.31A7.32,7.32,0,0,1,422.78,434.42Z"/></g></svg>